<svg id="Layer_1" data-name="Layer 1" xmlns="http://www.w3.org/2000/svg" viewBox="0 0 1080 1080"><defs><style>.cls-1{fill:#383580;}.cls-2{fill:#e89426;}</style></defs><title>stepi logo svg</title><path class="cls-1" d="M16.27,727.7q0-21.3,0-42.59a53.74,53.74,0,0,1,.33-7.07c.43-3.25,2.39-5.08,5.62-5.63a15.3,15.3,0,0,1,2.53-.18q8.61,0,17.23,0a17.15,17.15,0,0,1,2,.11c3.9.45,6.13,2.42,7,6.23a16.23,16.23,0,0,1,.3,2.51,17.53,17.53,0,0,1,.12,3.54c-1.39,10.35,3.28,18.69,8.82,26.73,2,2.92,4.13,5.77,6.27,8.6A66.69,66.69,0,0,0,94.39,742a59.18,59.18,0,0,0,37.19,3.24c11.07-2.61,19.6-8.76,26.78-17.19a39.91,39.91,0,0,0,7.57-14.8c3.64-12.4,4.22-24.9-.24-37.34a27.39,27.39,0,0,0-7.86-11.61,61,61,0,0,0-18-11.19c-6.76-2.63-13.67-4.88-20.55-7.19-13.44-4.5-27-8.7-40.34-13.47a170.63,170.63,0,0,1-21.35-9.31A77.12,77.12,0,0,1,26.24,593c-.68-1.17-1.3-2.37-2-3.52C20.08,583,18,575.65,16.71,568.13c-1-5.65-1.66-11.36-2.41-17.06a18.69,18.69,0,0,1-.24-4.53c1.14-9.73,1.71-19.54,4.45-29a60.3,60.3,0,0,1,3.09-9.08c4.57-9.68,10.29-18.61,18-26.15a87.13,87.13,0,0,1,12-9.36,77.18,77.18,0,0,1,28.34-11.78,88.51,88.51,0,0,1,29.72-1.11A76.86,76.86,0,0,1,123,462.68c7.41,2.36,14.72,4.9,21.27,9.28,3.65,2.44,7.5,4.57,11.28,6.8a10.31,10.31,0,0,0,2.3,1,2.61,2.61,0,0,0,3.47-2c.3-1.48.21-3,.42-4.52a33.37,33.37,0,0,1,1.11-5.93,5.61,5.61,0,0,1,4.81-4,113.58,113.58,0,0,1,23.75,0,5.36,5.36,0,0,1,4.74,4,23.48,23.48,0,0,1,.94,5.45c.16,3,.07,6.08.07,9.12q0,30.67,0,61.34c0,1.36,0,2.71,0,4.06-.28,4.93-2.28,7-7.11,7.5-.67.06-1.35.1-2,.1-5.92,0-11.83.08-17.74-.07-4.9-.12-6.65-1.59-7.69-6.36a34.65,34.65,0,0,1-.8-7,17.22,17.22,0,0,0-3.58-10.33,83,83,0,0,0-18.71-18.42,51.17,51.17,0,0,0-19.33-8.58c-5.94-1.23-12-1.88-18-2.77a5.87,5.87,0,0,0-1.51,0c-9.07,1.08-18.12,2.25-26.51,6.2a34.71,34.71,0,0,0-14.5,13,89.38,89.38,0,0,0-4.39,8.55,6.47,6.47,0,0,0-.68,1.9c-1.05,7.71-2.16,15.44.19,23.1a31.07,31.07,0,0,0,2.79,6.49c5.37,9.22,12.85,16,23.14,19.41,10.08,3.38,20.14,6.77,30.43,9.52,8.63,2.31,17,5.49,25.53,8.27,3.85,1.26,7.73,2.41,11.56,3.73a73.54,73.54,0,0,1,8,3.15A157.74,157.74,0,0,1,170.59,612a64.23,64.23,0,0,1,18.46,16.4,136.06,136.06,0,0,1,11.36,18,90.72,90.72,0,0,1,8.94,28.88c1,6.85,2,13.7,1.81,20.67a110.93,110.93,0,0,1-7.94,39.5,28.42,28.42,0,0,1-1.5,3.21c-9.84,17.91-23.09,32.43-41.75,41.4a91.85,91.85,0,0,1-20.19,6.56,80.38,80.38,0,0,1-33.23.39,100,100,0,0,1-27.7-9.43A123.7,123.7,0,0,1,59.32,764a20.28,20.28,0,0,0-3.72-2.55,2.38,2.38,0,0,0-3.5,1.76,35.23,35.23,0,0,0-.57,5c-.15,2.53-.05,5.08-.32,7.59-.51,4.76-2.65,6.89-7.35,7.58a20.49,20.49,0,0,1-3,.22c-4.56,0-9.13.06-13.69,0a28.5,28.5,0,0,1-5.52-.65,6,6,0,0,1-5-5.6,69.8,69.8,0,0,1-.3-7.09Q16.24,749,16.27,727.7Z"/><path class="cls-1" d="M494.61,575.85h85.17a62.63,62.63,0,0,1,6.58.19c4.21.45,6.71,3,7.29,7.17a30.2,30.2,0,0,1,.2,4q0,32.7,0,65.4c0,.68,0,1.36,0,2-.3,5-2.33,7.32-7.29,8.16a20.92,20.92,0,0,1-3.54.23q-7.1,0-14.19,0a26.19,26.19,0,0,1-3.54-.22,7,7,0,0,1-6-4.79,22.79,22.79,0,0,1-1.31-8.44c.17-7.77.19-15.54.24-23.32a23.62,23.62,0,0,0-.29-4c-.53-3.06-2-4.43-5-4.76a32.13,32.13,0,0,0-3.54-.13H469.19c-1,0-2,0-3,.1-3.35.33-4.75,1.7-5.13,5.13a39,39,0,0,0-.11,4q0,37,0,74a30.21,30.21,0,0,0,.34,5,4.27,4.27,0,0,0,3.69,3.7,35.31,35.31,0,0,0,5.54.35q28.9,0,57.8,0a49.21,49.21,0,0,1,5.57.16c4.59.52,7.33,3.25,8,7.8a13.53,13.53,0,0,1,.14,2c0,7.43,0,14.87,0,22.3a13.75,13.75,0,0,1-.71,4,6.3,6.3,0,0,1-5.42,4.69,43,43,0,0,1-5.55.4q-29.65,0-59.32,0a51.83,51.83,0,0,0-5.57.18c-3.14.34-4.35,1.73-4.54,5-.05.84,0,1.69,0,2.53q0,41.58,0,83.15c0,2.36-.17,4.73-.07,7.09.11,2.87,1.49,4.35,4.28,4.74a28.76,28.76,0,0,0,4.05.17l80.61,0c1,0,2,0,3-.09,3.47-.36,5-2,5.34-5.56.12-1.52.08-3,.08-4.56,0-8.62,0-17.24,0-25.86a41.15,41.15,0,0,1,.34-5.55,6.68,6.68,0,0,1,5.12-5.68,12.56,12.56,0,0,1,3.49-.53c5.92-.06,11.83-.06,17.75,0a12.77,12.77,0,0,1,3,.36,7.09,7.09,0,0,1,5.76,6.81c.11,1.17.1,2.36.1,3.54q0,33,0,65.91c0,1.35,0,2.71-.1,4.06-.4,4.65-2.46,7.06-7.17,7.76A38.09,38.09,0,0,1,577,895c-9.29-1-18.58-.57-27.86-.58q-71.49-.09-143,0c-1.35,0-2.71,0-4.06-.06-3.55-.3-5.54-2-6.21-5.57a35.87,35.87,0,0,1-.53-6q-.14-8.37-.07-16.73a32,32,0,0,1,.48-5.54c.73-4,2.76-5.92,6.75-6.37,1.84-.21,3.72-.12,5.57-.15,2.88,0,5.75.06,8.62-.1,3.88-.21,5.33-1.76,5.58-5.73.08-1.18.05-2.36.05-3.55q0-108.75,0-217.5a47.43,47.43,0,0,0-.13-5.06c-.32-2.85-1.72-4.21-4.56-4.51-1.5-.16-3-.11-4.55-.14-3.21,0-6.44.09-9.63-.15-4.91-.37-6.92-2.33-7.73-7.13a20.94,20.94,0,0,1-.38-3.52c0-6.59-.06-13.18,0-19.77a21.66,21.66,0,0,1,.67-5,7.11,7.11,0,0,1,6.8-5.81c2-.2,4-.16,6.08-.16Z"/><path class="cls-1" d="M650.52,405.56c13.52,0,27,.09,40.55,0a157.07,157.07,0,0,1,20.68,1.64,26.28,26.28,0,0,0,3.51.43c8.21-.07,16,2.14,23.91,4,12.08,2.85,21.87,9.61,30.09,18.68,9.43,10.42,16,22.55,20.55,35.79a89.94,89.94,0,0,1,4.62,24.28c.14,2.35.56,4.69.73,7a51,51,0,0,1,.34,8.09c-.68,7.73-1.43,15.46-2.51,23.15-1.24,8.76-4.43,17-8.14,25-3.5,7.49-7.47,14.77-13,21.06a59.15,59.15,0,0,1-15,12.73c-7.5,4.26-15,8.36-23.49,10.54a131.2,131.2,0,0,1-27,3.72c-3.54.16-7.06.62-10.6.74-7.26.24-14.52.35-21.78.52-2.36.06-4.74,0-7.08.25-3,.34-4.11,1.48-4.57,4.49a27.22,27.22,0,0,0-.24,4q0,30.92,0,61.84a32.74,32.74,0,0,0,.27,4.54c.44,2.9,1.71,4.18,4.66,4.41,3.69.29,7.41.27,11.11.48a31.42,31.42,0,0,1,6,.7c2.87.75,4.81,2.76,4.86,5.79.13,9.29.21,18.58,0,27.87-.09,3.86-2.61,6.1-6.43,6.66a28.76,28.76,0,0,1-4.05.16q-38,0-76,0a25.41,25.41,0,0,1-4.54-.26,6.07,6.07,0,0,1-5.12-5,22.09,22.09,0,0,1-.43-4.53c0-7.09,0-14.19,0-21.28,0-.51,0-1,.05-1.52.34-5.51,2.07-7.57,7.44-8.54a36.62,36.62,0,0,1,5.55-.38c2.7-.08,5.41,0,8.11-.12,3.72-.22,5.18-1.68,5.35-5.35.16-3.37.13-6.75.12-10.13s-.16-6.76-.16-10.14q0-94.78,0-189.56c0-3.89,0-7.77-.05-11.66a32.14,32.14,0,0,0-.15-3.54c-.47-3.77-1.65-5-5.5-5.32-2.52-.22-5.06-.1-7.59-.2a49.17,49.17,0,0,1-6.56-.47c-4.24-.75-6.07-2.9-6.48-7.21-.11-1.18-.14-2.36-.14-3.54,0-6.42,0-12.84,0-19.26a34,34,0,0,1,.33-5.05,6,6,0,0,1,5.23-5.42,22.68,22.68,0,0,1,4-.28h48.65Zm11.84,99h-.05V553.2c0,1.19,0,2.37.08,3.55.3,3.76,1.52,5.08,5.19,5.66a12.3,12.3,0,0,0,2,.17c11.14,0,22.29.06,33.33-1.81,5.81-1,11.62-1.87,17.27-3.77,13.77-4.63,23-13.45,27.28-27.55,4.11-13.73,4.38-27.61,2-41.58a54.4,54.4,0,0,0-7.74-20.71c-7.42-11.51-18.22-17.31-31.4-18.91s-26.62-1.5-40-1.34a24.45,24.45,0,0,0-3.53.25,4.59,4.59,0,0,0-4.29,4.26,34.49,34.49,0,0,0-.2,4.55Q662.36,480.27,662.36,504.59Z"/><path class="cls-1" d="M345.15,623.8q0,54,0,108a43.69,43.69,0,0,0,.26,6.06c.34,2.41,1.7,3.54,4.1,3.71,1.18.08,2.36,0,3.55-.06,6.08,0,12.16-.12,18.24,0a20.34,20.34,0,0,1,5.47.86,7,7,0,0,1,5.14,5.71,29.23,29.23,0,0,1,.56,5c.07,6.42,0,12.84,0,19.26,0,.51,0,1,0,1.52-.38,6-2.74,8.42-8.84,8.87-1.85.14-3.72.09-5.58.09q-45.1,0-90.23,0a47.11,47.11,0,0,1-6.06-.26,6.17,6.17,0,0,1-5.72-5,29.14,29.14,0,0,1-.91-6c-.12-6.42,0-12.84,0-19.27a17.67,17.67,0,0,1,.15-2.52c.76-5,3.74-7.82,8.75-8.29,1.18-.1,2.37-.09,3.55-.08l17.74.15c.51,0,1,.05,1.52,0,3.24-.15,4.72-1.36,4.87-4.58.23-4.89.23-9.78.26-14.68,0-1.85-.23-3.71-.2-5.57.28-22.46-.17-44.92-.09-67.39.12-30.92,0-61.84.05-92.76,0-4.56.26-9.12.4-13.68a19.48,19.48,0,0,0,.07-2c-.7-8.78.19-17.56,0-26.34a25.44,25.44,0,0,0-.41-4.53c-.5-2.57-1.82-3.73-4.46-4.06a27.88,27.88,0,0,0-3.54-.16q-19,0-38,0a26.07,26.07,0,0,0-3.54.17,4.43,4.43,0,0,0-4.28,4.23,30.35,30.35,0,0,0-.15,4c0,8.45,0,16.9,0,25.35a30.26,30.26,0,0,1-.29,5,5.76,5.76,0,0,1-5,5.08,20.89,20.89,0,0,1-3.51.42c-5.75.05-11.5.19-17.23,0-6.47-.23-8.75-2.52-9.36-8.91-.19-2-.17-4.05-.17-6.08q0-28.64,0-57.28c0-1.69,0-3.38.13-5.06.49-5.79,3-8.53,8.83-9.26a50.38,50.38,0,0,1,7.58-.2c6.75.16,13.5.59,20.25.59q77.31.09,154.62,0c4.89,0,9.79-.28,14.68-.52a37.06,37.06,0,0,1,9.57.63,7,7,0,0,1,6,6.53,30.35,30.35,0,0,1,.27,4q0,32.7,0,65.39a21.63,21.63,0,0,1-.32,4c-.7,3.72-2.29,5.24-6,5.84a19.18,19.18,0,0,1-3,.29c-5.58,0-11.16.16-16.73,0-7.18-.21-9.33-2.43-9.42-9.59-.1-8.62,0-17.24-.05-25.86a30.19,30.19,0,0,0-.39-5,4.25,4.25,0,0,0-4.18-3.73c-1.17-.11-2.36-.16-3.54-.16H353.08a26.07,26.07,0,0,0-3.54.18,4.43,4.43,0,0,0-4.23,4.28,32.12,32.12,0,0,0-.14,4q0,12.66,0,25.34Z"/><path class="cls-1" d="M840.24,623.7q0-53.75,0-107.5a53.38,53.38,0,0,0-.2-6.07,4.25,4.25,0,0,0-3.92-4,27.34,27.34,0,0,0-4.05-.19c-4,0-8.11,0-12.17,0a34.79,34.79,0,0,1-3.54-.11c-4.37-.47-6.36-2.24-7.21-6.52a24.53,24.53,0,0,1-.39-4.53c0-5.75-.08-11.49,0-17.24a46.4,46.4,0,0,1,.71-6.53c.63-3.88,3.22-5.78,6.89-6.37a24.89,24.89,0,0,1,4-.23q41.33,0,82.65,0a22.21,22.21,0,0,1,5,.42,6,6,0,0,1,5,5.63,27.84,27.84,0,0,1,.18,3c0,7.78,0,15.55,0,23.33,0,.67,0,1.35-.07,2-.37,4.64-2.28,6.72-7,7-4.38.25-8.79.09-13.18.13-1.69,0-3.39-.05-5.07.11-3,.29-4.56,1.74-5,4.77a32.79,32.79,0,0,0-.18,4.55q0,15.72,0,31.44,0,91.26,0,182.54c0,2.2-.07,4.4.06,6.59.26,4.74,1.87,6.39,6.53,6.52s9.13,0,13.69.1a25.37,25.37,0,0,1,5.49.74,5.81,5.81,0,0,1,4.58,5.42,4.4,4.4,0,0,1,.05.51c0,8.95.14,17.91-.05,26.86-.09,4.4-2.52,6.79-6.81,7.53a20.79,20.79,0,0,1-3.53.2q-41.58,0-83.16,0a24.83,24.83,0,0,1-5-.48,6.2,6.2,0,0,1-5.36-5.91c-.25-2.69-.42-5.39-.46-8.1-.08-5.06-.13-10.14,0-15.2a27.56,27.56,0,0,1,.85-6,6.49,6.49,0,0,1,5.19-5,25.66,25.66,0,0,1,5-.58c4.39-.08,8.79,0,13.18,0,5.87-.1,7.12-1.3,7.19-7.23.09-8.11,0-16.23,0-24.34V623.7Z"/><circle class="cls-1" cx="859.12" cy="394.76" r="34.48"/><circle class="cls-2" cx="945.32" cy="394.76" r="34.48"/><circle class="cls-1" cx="1031.52" cy="394.76" r="34.48"/><circle class="cls-2" cx="859.12" cy="307.04" r="34.48"/><circle class="cls-1" cx="945.32" cy="307.04" r="34.48"/><circle class="cls-1" cx="1031.52" cy="307.04" r="34.48"/><circle class="cls-1" cx="859.12" cy="219.32" r="34.48"/><circle class="cls-1" cx="945.32" cy="219.32" r="34.48"/><circle class="cls-1" cx="1031.52" cy="219.32" r="34.48"/></svg>