<svg width="124" height="69" viewBox="0 0 124 69" fill="none" xmlns="http://www.w3.org/2000/svg">
<g clip-path="url(#clip0_277_7440)">
<path d="M21.911 18.6179H31.3724V45.5736H37.6952V18.6179H47.1108V12.9286H21.911V18.6179ZM49.0486 18.6179H58.51V45.5736H64.8328V18.6179H74.2484V12.9286H49.0486V18.6179ZM93.8166 40.1167C92.8628 40.3966 91.6934 40.5365 90.3083 40.5365C88.8318 40.5365 87.5317 40.2645 86.408 39.7193C85.2843 39.174 84.3461 38.4108 83.5922 37.4285C82.8383 36.4475 82.2764 35.2632 81.9079 33.8768C81.5382 32.4905 81.3539 30.9563 81.3539 29.2742C81.3539 25.4109 82.1301 22.5604 83.685 20.7225C85.2386 18.8846 87.2926 17.9643 89.8458 17.9643C91.2308 17.9643 92.4068 18.0422 93.3763 18.198C94.3458 18.3538 95.1834 18.602 95.8916 18.944L97.1381 13.5346C96.3071 13.1927 95.2526 12.8982 93.976 12.6487C92.6995 12.4005 91.138 12.2764 89.2917 12.2764C87.5683 12.2764 85.8448 12.5642 84.1227 13.1399C82.3992 13.7155 80.8378 14.6635 79.4384 15.9838C78.0377 17.3055 76.8996 19.047 76.0228 21.207C75.1461 23.3684 74.7071 26.05 74.7071 29.2517C74.7071 32.3294 75.099 34.9489 75.8843 37.1103C76.6683 39.2717 77.7228 41.0277 79.0464 42.3797C80.3687 43.7317 81.9001 44.7114 83.6392 45.3174C85.3771 45.9234 87.2155 46.2271 89.1545 46.2271C90.7539 46.2271 92.3166 46.0726 93.8389 45.765C95.3624 45.4574 96.6155 44.9477 97.6007 44.2387L96.3084 39.0459C95.6002 39.4803 94.7705 39.8368 93.8166 40.1167ZM122.777 17.7544C121.962 16.3403 120.907 15.2365 119.615 14.443C118.323 13.6508 116.868 13.1214 115.253 12.8573C113.638 12.5932 112.03 12.4612 110.431 12.4612C108.891 12.4612 107.346 12.5312 105.792 12.6711C104.238 12.8111 102.815 13.0052 101.523 13.2534V45.5722H107.846V34.3323C108 34.364 108.254 34.3944 108.608 34.4261C108.961 34.4578 109.323 34.4802 109.692 34.4961C110.062 34.5119 110.415 34.5198 110.753 34.5198C111.092 34.5198 111.337 34.5198 111.492 34.5198C113.091 34.5198 114.637 34.3178 116.13 33.9138C117.622 33.5098 118.952 32.8575 120.122 31.9544C121.291 31.0527 122.229 29.8947 122.938 28.4807C123.645 27.0666 123.999 25.333 123.999 23.2812C124 21.0116 123.592 19.1698 122.777 17.7544ZM116.777 26.1265C116.391 26.8725 115.877 27.4561 115.231 27.876C114.584 28.2958 113.854 28.5837 113.039 28.7381C112.223 28.8939 111.4 28.9718 110.569 28.9718C110.446 28.9718 110.253 28.9718 109.992 28.9718C109.73 28.9718 109.461 28.9639 109.184 28.9481C108.907 28.9322 108.646 28.9098 108.4 28.8781C108.153 28.8477 107.969 28.816 107.846 28.7843V18.198C108.184 18.136 108.63 18.0818 109.184 18.0343C109.738 17.9881 110.322 17.9643 110.938 17.9643C111.737 17.9643 112.522 18.0422 113.291 18.198C114.059 18.3538 114.745 18.6337 115.345 19.0377C115.945 19.4418 116.429 19.9778 116.799 20.6459C117.169 21.3153 117.353 22.1616 117.353 23.1875C117.354 24.4009 117.161 25.3806 116.777 26.1265Z" fill="white"/>
<path d="M46.6744 57.9684C46.5725 57.5591 46.3138 57.2687 45.8068 57.2687C45.0607 57.2687 44.7484 57.9341 44.7484 58.6088C44.7484 59.2835 45.0607 59.9489 45.8068 59.9489C46.353 59.9489 46.6405 59.5396 46.694 59.0273H47.2886C47.235 59.8697 46.6496 60.452 45.8055 60.452C44.7667 60.452 44.1382 59.6188 44.1382 58.6088C44.1382 57.608 44.768 56.7656 45.8055 56.7656C46.596 56.7656 47.2049 57.2093 47.2833 57.9684H46.6744Z" fill="white"/>
<path d="M50.9955 58.6088C50.9955 59.6188 50.367 60.452 49.3282 60.452C48.2894 60.452 47.6609 59.6188 47.6609 58.6088C47.6609 57.608 48.2907 56.7656 49.3282 56.7656C50.367 56.7656 50.9955 57.6093 50.9955 58.6088ZM48.2698 58.6088C48.2698 59.2835 48.5821 59.9489 49.3282 59.9489C50.0743 59.9489 50.3866 59.2835 50.3866 58.6088C50.3866 57.9341 50.0743 57.2687 49.3282 57.2687C48.5808 57.2687 48.2698 57.9341 48.2698 58.6088Z" fill="white"/>
<path d="M51.5417 56.8506H52.4001L53.3605 59.6048H53.371L54.3078 56.8506H55.1558V60.3692H54.5757V57.6547H54.5652L53.5996 60.3692H53.0979L52.1323 57.6547H52.1231V60.3692H51.543V56.8506H51.5417Z" fill="white"/>
<path d="M55.8771 56.8506H56.7355L57.6959 59.6048H57.7064L58.6432 56.8506H59.4912V60.3692H58.9111V57.6547H58.9006L57.935 60.3692H57.4333L56.4677 57.6547H56.4585V60.3692H55.8784V56.8506H55.8771Z" fill="white"/>
<path d="M60.223 56.8506H62.7304V57.3827H60.8332V58.3043H62.588V58.8073H60.8319V59.8372H62.7631V60.3692H60.223V56.8506Z" fill="white"/>
<path d="M63.2962 56.8506H64.9595C65.7252 56.8506 66.1107 57.2058 66.1107 57.8012C66.1107 58.4759 65.652 58.6489 65.5357 58.6885V58.6977C65.7448 58.7228 66.0532 58.8905 66.0532 59.4424C66.0532 59.857 66.112 60.2267 66.2439 60.3692H65.5906C65.4979 60.2161 65.4979 60.0246 65.4979 59.8517C65.4979 59.206 65.3659 58.9209 64.8053 58.9209H63.9077V60.3692H63.2975V56.8506H63.2962ZM63.9051 58.4521H64.9046C65.2953 58.4521 65.4992 58.2647 65.4992 57.891C65.4992 57.4381 65.2117 57.3536 64.8942 57.3536H63.9038V58.4521H63.9051Z" fill="white"/>
<path d="M69.0794 57.9684C68.9775 57.5591 68.7187 57.2687 68.2118 57.2687C67.4657 57.2687 67.1534 57.9341 67.1534 58.6088C67.1534 59.2835 67.4657 59.9489 68.2118 59.9489C68.7579 59.9489 69.0454 59.5396 69.099 59.0273H69.6935C69.6399 59.8697 69.0545 60.452 68.2105 60.452C67.1717 60.452 66.5432 59.6188 66.5432 58.6088C66.5432 57.608 67.173 56.7656 68.2105 56.7656C69.001 56.7656 69.6099 57.2093 69.6883 57.9684H69.0794Z" fill="white"/>
<path d="M70.2501 56.8506H70.8603V60.3692H70.2501V56.8506Z" fill="white"/>
<path d="M72.538 56.8506H73.1861L74.5267 60.3692H73.8734L73.5468 59.4384H72.1565L71.8298 60.3692H71.2L72.538 56.8506ZM72.3224 58.9697H73.3861L72.8647 57.4566H72.8503L72.3224 58.9697Z" fill="white"/>
<path d="M74.8586 56.8506H75.4688V59.8372H77.2393V60.3692H74.8599V56.8506H74.8586Z" fill="white"/>
<path d="M77.6587 56.8506H78.2676V60.3692H77.6574V56.8506H77.6587Z" fill="white"/>
<path d="M78.9118 56.8506H81.5604V57.318L79.5312 59.8358H81.6087V60.3679H78.7563V59.8649L80.7855 57.3814H78.9131V56.8506H78.9118Z" fill="white"/>
<path d="M83.0186 56.8506H83.6667L85.0073 60.3692H84.354L84.0273 59.4384H82.637L82.3104 60.3692H81.6806L83.0186 56.8506ZM82.8043 58.9697H83.8679L83.3465 57.4566H83.3322L82.8043 58.9697Z" fill="white"/>
<path d="M84.5591 56.8506H87.3775V57.3827H86.2708V60.3692H85.6606V57.3827H84.5591V56.8506Z" fill="white"/>
<path d="M87.7839 56.8506H88.3941V60.3692H87.7839V56.8506Z" fill="white"/>
<path d="M92.2892 58.6088C92.2892 59.6188 91.6607 60.452 90.6219 60.452C89.5831 60.452 88.9547 59.6188 88.9547 58.6088C88.9547 57.608 89.5845 56.7656 90.6219 56.7656C91.6607 56.7656 92.2892 57.6093 92.2892 58.6088ZM89.5635 58.6088C89.5635 59.2835 89.8758 59.9489 90.6219 59.9489C91.368 59.9489 91.6803 59.2835 91.6803 58.6088C91.6803 57.9341 91.368 57.2687 90.6219 57.2687C89.8758 57.2687 89.5635 57.9341 89.5635 58.6088Z" fill="white"/>
<path d="M92.821 56.8506H93.4652L95.0553 59.4424H95.0645V56.8506H95.6446V60.3692H95.0005L93.4155 57.7827H93.4011V60.3692H92.821V56.8506Z" fill="white"/>
<path d="M97.7235 56.8506H99.2601C100.254 56.8506 100.445 57.5015 100.445 57.9399C100.445 58.3782 100.254 59.0186 99.2601 59.0186H98.3337V60.3692H97.7235V56.8506ZM98.3324 58.5155H99.2248C99.4979 58.5155 99.835 58.3769 99.835 57.9333C99.835 57.4698 99.5567 57.3523 99.2353 57.3523H98.3337V58.5155H98.3324Z" fill="white"/>
<path d="M100.976 56.8506H101.586V59.8372H103.356V60.3692H100.977V56.8506H100.976Z" fill="white"/>
<path d="M104.707 56.8506H105.356L106.696 60.3692H106.043L105.716 59.4384H104.326L103.999 60.3692H103.369L104.707 56.8506ZM104.492 58.9697H105.555L105.034 57.4566H105.02L104.492 58.9697Z" fill="white"/>
<path d="M106.248 56.8506H109.066V57.3827H107.96V60.3692H107.35V57.3827H106.248V56.8506Z" fill="white"/>
<path d="M109.471 56.8506H111.876V57.3827H110.08V58.3043H111.656V58.8073H110.08V60.3692H109.47V56.8506H109.471Z" fill="white"/>
<path d="M115.515 58.6088C115.515 59.6188 114.886 60.452 113.847 60.452C112.809 60.452 112.18 59.6188 112.18 58.6088C112.18 57.608 112.81 56.7656 113.847 56.7656C114.885 56.7656 115.515 57.6093 115.515 58.6088ZM112.788 58.6088C112.788 59.2835 113.1 59.9489 113.846 59.9489C114.592 59.9489 114.904 59.2835 114.904 58.6088C114.904 57.9341 114.592 57.2687 113.846 57.2687C113.1 57.2687 112.788 57.9341 112.788 58.6088Z" fill="white"/>
<path d="M116.07 56.8506H117.733C118.499 56.8506 118.885 57.2058 118.885 57.8012C118.885 58.4759 118.426 58.6489 118.31 58.6885V58.6977C118.519 58.7228 118.827 58.8905 118.827 59.4424C118.827 59.857 118.886 60.2267 119.018 60.3692H118.364C118.272 60.2161 118.272 60.0246 118.272 59.8517C118.272 59.206 118.14 58.9209 117.579 58.9209H116.682V60.3692H116.071V56.8506H116.07ZM116.68 58.4521H117.68C118.07 58.4521 118.274 58.2647 118.274 57.891C118.274 57.4381 117.987 57.3536 117.669 57.3536H116.679V58.4521H116.68Z" fill="white"/>
<path d="M119.495 56.8506H120.353L121.314 59.6048H121.324L122.261 56.8506H123.109V60.3692H122.529V57.6547H122.52L121.554 60.3692H121.052L120.087 57.6547H120.077V60.3692H119.497V56.8506H119.495Z" fill="white"/>
<path d="M44.1121 50.8525H47.2023V51.4361H45.9885V54.7092H45.3208V51.4361H44.1121V50.8525Z" fill="white"/>
<path d="M47.6466 50.8525H50.3944V51.4361H48.3156V52.4462H50.2403V52.9967H48.3156V54.1256H50.4323V54.7092H47.6466V50.8525Z" fill="white"/>
<path d="M53.5931 52.0784C53.4807 51.6295 53.1972 51.3113 52.6419 51.3113C51.8239 51.3113 51.4816 52.0401 51.4816 52.7808C51.4816 53.5215 51.8239 54.2504 52.6419 54.2504C53.2403 54.2504 53.5565 53.8014 53.6153 53.2403H54.2673C54.2085 54.1632 53.567 54.8009 52.6419 54.8009C51.5038 54.8009 50.8139 53.8886 50.8139 52.7808C50.8139 51.685 51.5038 50.7607 52.6419 50.7607C53.5082 50.7607 54.1759 51.2466 54.2621 52.0784H53.5931Z" fill="white"/>
<path d="M54.8605 50.8525H55.5282V52.3868H57.2661V50.8525H57.9338V54.7092H57.2661V52.9703H55.5282V54.7092H54.8605V50.8525Z" fill="white"/>
<path d="M58.7112 50.8525H59.4168L61.1598 53.6939H61.1703V50.8525H61.8066V54.7092H61.101L59.3632 51.8731H59.3475V54.7092H58.7112V50.8525Z" fill="white"/>
<path d="M66.0519 52.7808C66.0519 53.8886 65.362 54.8009 64.2239 54.8009C63.0858 54.8009 62.3959 53.8886 62.3959 52.7808C62.3959 51.685 63.0858 50.7607 64.2239 50.7607C65.362 50.7607 66.0519 51.6836 66.0519 52.7808ZM63.0636 52.7808C63.0636 53.5215 63.4059 54.2504 64.2239 54.2504C65.0418 54.2504 65.3842 53.5215 65.3842 52.7808C65.3842 52.0415 65.0418 51.3113 64.2239 51.3113C63.4059 51.3113 63.0636 52.0401 63.0636 52.7808Z" fill="white"/>
<path d="M66.6621 50.8525H67.3298V54.1256H69.2701V54.7092H66.6621V50.8525Z" fill="white"/>
<path d="M73.1848 52.7808C73.1848 53.8886 72.4949 54.8009 71.3568 54.8009C70.2187 54.8009 69.5288 53.8886 69.5288 52.7808C69.5288 51.685 70.2187 50.7607 71.3568 50.7607C72.4962 50.7607 73.1848 51.6836 73.1848 52.7808ZM70.1965 52.7808C70.1965 53.5215 70.5389 54.2504 71.3568 54.2504C72.1748 54.2504 72.5171 53.5215 72.5171 52.7808C72.5171 52.0415 72.1748 51.3113 71.3568 51.3113C70.5389 51.3113 70.1965 52.0401 70.1965 52.7808Z" fill="white"/>
<path d="M77.127 54.7088H76.6997L76.5978 54.2547C76.2397 54.6653 75.9131 54.7999 75.4479 54.7999C74.3098 54.7999 73.6199 53.8876 73.6199 52.7799C73.6199 51.684 74.3098 50.7598 75.4479 50.7598C76.2763 50.7598 76.9819 51.2074 77.0838 52.0774H76.4318C76.3626 51.5744 75.9353 51.3103 75.4479 51.3103C74.63 51.3103 74.2876 52.0392 74.2876 52.7799C74.2876 53.5206 74.63 54.2494 75.4479 54.2494C76.1378 54.2652 76.5011 53.844 76.5167 53.1905H75.5015V52.6769H77.127V54.7088Z" fill="white"/>
<path d="M78.8491 53.1974L77.417 50.8525H78.1919L79.2019 52.5808L80.1962 50.8525H80.9449L79.5181 53.1974V54.7105H78.8504V53.1974H78.8491Z" fill="white"/>
<path d="M82.4437 50.8525H85.5339V51.4361H84.32V54.7092H83.6523V51.4361H82.4437V50.8525Z" fill="white"/>
<path d="M85.9781 50.8525H87.8009C88.6397 50.8525 89.0631 51.242 89.0631 51.8956C89.0631 52.6363 88.56 52.8251 88.432 52.8674V52.8779C88.662 52.9043 88.9991 53.0892 88.9991 53.6939C88.9991 54.1481 89.0631 54.5521 89.2081 54.7092H88.4921C88.3902 54.5415 88.3902 54.3316 88.3902 54.1415C88.3902 53.4338 88.2464 53.1209 87.631 53.1209H86.6471V54.7092H85.9794V50.8525H85.9781ZM86.6458 52.6086H87.7421C88.1694 52.6086 88.3941 52.4026 88.3941 51.9933C88.3941 51.4969 88.0792 51.4044 87.7316 51.4044H86.6471V52.6086H86.6458Z" fill="white"/>
<path d="M90.763 50.8525H91.4738L92.9438 54.7092H92.2278L91.8697 53.6886H90.3462L89.9882 54.7092H89.2983L90.763 50.8525ZM90.5278 53.1763H91.6933L91.121 51.518H91.1054L90.5278 53.1763Z" fill="white"/>
<path d="M93.2822 50.8525H93.9878L95.7309 53.6939H95.7413V50.8525H96.3777V54.7092H95.6721L93.9342 51.8731H93.9186V54.7092H93.2822V50.8525Z" fill="white"/>
<path d="M97.6085 53.4238C97.6085 54.0127 98.041 54.2504 98.5767 54.2504C99.1647 54.2504 99.3842 53.9533 99.3842 53.6668C99.3842 53.3697 99.2235 53.2509 99.0693 53.1915C98.7962 53.0885 98.4604 53.0185 97.9312 52.8733C97.274 52.7003 97.0872 52.295 97.0872 51.8949C97.0872 51.1172 97.7927 50.7607 98.4826 50.7607C99.2745 50.7607 99.9474 51.1872 99.9474 51.9926H99.2797C99.2418 51.4962 98.9217 51.3113 98.4565 51.3113C98.1468 51.3113 97.7562 51.4249 97.7562 51.8144C97.7562 52.0903 97.9378 52.2303 98.2109 52.3108C98.2697 52.3266 99.1138 52.5485 99.3124 52.6079C99.8089 52.765 100.056 53.1809 100.056 53.5915C100.056 54.455 99.2915 54.8009 98.5375 54.8009C97.666 54.8009 96.9604 54.3797 96.9447 53.4238H97.6085Z" fill="white"/>
<path d="M100.636 50.8525H103.271V51.4361H101.304V52.4462H103.03V52.9967H101.304V54.7092H100.636V50.8525Z" fill="white"/>
<path d="M103.806 50.8525H106.554V51.4361H104.475V52.4462H106.4V52.9967H104.475V54.1256H106.592V54.7092H103.806V50.8525Z" fill="white"/>
<path d="M107.176 50.8525H108.998C109.837 50.8525 110.261 51.242 110.261 51.8956C110.261 52.6363 109.758 52.8251 109.63 52.8674V52.8779C109.86 52.9043 110.197 53.0892 110.197 53.6939C110.197 54.1481 110.261 54.5521 110.406 54.7092H109.69C109.588 54.5415 109.588 54.3316 109.588 54.1415C109.588 53.4338 109.444 53.1209 108.829 53.1209H107.845V54.7092H107.177V50.8525H107.176ZM107.843 52.6086H108.94C109.367 52.6086 109.592 52.4026 109.592 51.9933C109.592 51.4969 109.277 51.4044 108.929 51.4044H107.845V52.6086H107.843Z" fill="white"/>
<path d="M113.448 50.8525H114.158L115.628 54.7092H114.912L114.554 53.6886H113.031L112.673 54.7092H111.983L113.448 50.8525ZM113.212 53.1763H114.378L113.806 51.518H113.79L113.212 53.1763Z" fill="white"/>
<path d="M115.967 50.8525H116.672L118.415 53.6939H118.426V50.8525H119.062V54.7092H118.357L116.619 51.8731H116.603V54.7092H115.967V50.8525Z" fill="white"/>
<path d="M119.854 50.8525H121.436C122.612 50.8525 123.121 51.716 123.121 52.7802C123.121 53.8444 122.612 54.7092 121.436 54.7092H119.854V50.8525ZM120.523 54.1586H121.18C122.228 54.1586 122.453 53.5592 122.453 52.7815C122.453 52.0039 122.228 51.4044 121.18 51.4044H120.523V54.1586Z" fill="white"/>
<path d="M34.9173 67.1738H17.3613C16.8621 67.1738 16.4571 67.5831 16.4571 68.0875C16.4571 68.5919 16.8621 69.0012 17.3613 69.0012H34.9173C35.4164 69.0012 35.8215 68.5919 35.8215 68.0875C35.8215 67.5831 35.4164 67.1738 34.9173 67.1738Z" fill="white"/>
<path d="M40.2092 49.6952C38.9979 49.6952 38.0153 50.6894 38.0153 51.912C38.0153 52.8349 38.5759 53.6258 39.3703 53.9598V56.5476C39.3703 58.3063 37.9526 59.7375 36.2135 59.7375H16.1945C14.454 59.7375 13.0376 58.305 13.0376 56.5476V47.7253C13.0376 47.4203 12.8874 47.1351 12.6378 46.9661C5.85635 42.3753 1.80708 34.7161 1.80708 26.4773C1.80708 19.8282 4.389 13.5949 9.0746 8.92629C13.6753 4.33685 19.7472 1.8256 26.202 1.8256C26.3183 1.8256 26.4346 1.8256 26.5509 1.82824C28.9669 1.86257 31.3423 2.25602 33.6303 2.99936C33.6277 3.04425 33.6276 3.08518 33.6276 3.13007C33.6276 4.35401 34.6115 5.34689 35.8215 5.34689C37.0327 5.34689 38.0153 4.35269 38.0153 3.13007C38.0153 1.90614 37.0314 0.913254 35.8215 0.913254C35.3237 0.913254 34.8611 1.08226 34.4913 1.36744C31.9408 0.497353 29.2818 0.0378809 26.5757 0.00223223C19.5042 -0.08887 12.8364 2.61119 7.80455 7.62445C2.77269 12.6417 0 19.3357 0 26.4773C0 35.1624 4.19039 43.2494 11.2306 48.2085V56.549C11.2306 59.3137 13.4584 61.5649 16.1958 61.5649H36.2148C38.9509 61.5649 41.18 59.3137 41.18 56.549V53.9017C41.9052 53.5413 42.407 52.7847 42.407 51.9133C42.4043 50.6894 41.4204 49.6952 40.2092 49.6952Z" fill="white"/>
<path d="M37.2405 63.457H15.0381C14.539 63.457 14.1339 63.8663 14.1339 64.3707C14.1339 64.8751 14.539 65.2844 15.0381 65.2844H37.2405C37.7396 65.2844 38.1447 64.8751 38.1447 64.3707C38.1447 63.8663 37.7396 63.457 37.2405 63.457Z" fill="white"/>
</g>
<defs>
<clipPath id="clip0_277_7440">
<rect width="124" height="69" fill="white"/>
</clipPath>
</defs>
</svg>
