<svg width="127" height="36" viewBox="0 0 127 36" fill="none" xmlns="http://www.w3.org/2000/svg">
<g clip-path="url(#clip0_1234_649)">
<path d="M8.83508 15.5548H12.6502V26.4933H15.1997V15.5548H18.9963V13.2461H8.83508V15.5548ZM19.7777 15.5548H23.5927V26.4933H26.1422V15.5548H29.9389V13.2461H19.7777V15.5548ZM37.8293 24.279C37.4447 24.3925 36.9731 24.4493 36.4146 24.4493C35.8193 24.4493 35.295 24.339 34.8419 24.1177C34.3888 23.8964 34.0105 23.5867 33.7065 23.1881C33.4025 22.79 33.176 22.3094 33.0274 21.7468C32.8783 21.1843 32.804 20.5617 32.804 19.8791C32.804 18.3114 33.117 17.1547 33.7439 16.4088C34.3704 15.663 35.1986 15.2896 36.2281 15.2896C36.7866 15.2896 37.2608 15.3212 37.6517 15.3844C38.0427 15.4477 38.3804 15.5484 38.666 15.6871L39.1686 13.492C38.8335 13.3533 38.4083 13.2338 37.8936 13.1325C37.3788 13.0318 36.7492 12.9814 36.0047 12.9814C35.3098 12.9814 34.6149 13.0982 33.9204 13.3318C33.2255 13.5654 32.5959 13.9501 32.0316 14.4859C31.4668 15.0222 31.0079 15.7289 30.6544 16.6055C30.3008 17.4826 30.1238 18.5707 30.1238 19.87C30.1238 21.1189 30.2819 22.1819 30.5985 23.059C30.9146 23.9361 31.3398 24.6486 31.8735 25.1973C32.4067 25.7459 33.0242 26.1435 33.7255 26.3894C34.4262 26.6353 35.1675 26.7586 35.9494 26.7586C36.5943 26.7586 37.2244 26.6959 37.8382 26.571C38.4526 26.4462 38.9578 26.2394 39.3551 25.9517L38.834 23.8444C38.5485 24.0207 38.2139 24.1654 37.8293 24.279ZM49.5068 15.2044C49.1781 14.6306 48.7529 14.1827 48.2318 13.8607C47.7107 13.5392 47.1243 13.3243 46.4731 13.2172C45.8219 13.11 45.1733 13.0565 44.5284 13.0565C43.9078 13.0565 43.2845 13.0849 42.6581 13.1416C42.0316 13.1984 41.4578 13.2772 40.9368 13.3779V26.4928H43.4863V21.9317C43.5485 21.9446 43.6507 21.9569 43.7935 21.9697C43.9357 21.9826 44.0817 21.9917 44.2308 21.9981C44.3799 22.0046 44.5221 22.0078 44.6586 22.0078C44.795 22.0078 44.8941 22.0078 44.9563 22.0078C45.6012 22.0078 46.2244 21.9258 46.8267 21.7619C47.4283 21.5979 47.9647 21.3332 48.4362 20.9668C48.9078 20.6008 49.2861 20.1309 49.5717 19.5571C49.8567 18.9833 49.9995 18.2798 49.9995 17.4472C50 16.5262 49.8356 15.7788 49.5068 15.2044ZM47.0875 18.6018C46.932 18.9045 46.7244 19.1413 46.4642 19.3117C46.2034 19.4821 45.9088 19.5989 45.5801 19.6616C45.2513 19.7248 44.9194 19.7564 44.5843 19.7564C44.5348 19.7564 44.4568 19.7564 44.3514 19.7564C44.246 19.7564 44.1375 19.7532 44.0258 19.7468C43.9141 19.7403 43.8087 19.7312 43.7097 19.7184C43.6101 19.7061 43.5358 19.6932 43.4863 19.6803V15.3844C43.6228 15.3592 43.8024 15.3373 44.0258 15.318C44.2492 15.2992 44.4847 15.2896 44.7329 15.2896C45.0553 15.2896 45.372 15.3212 45.6818 15.3844C45.9916 15.4477 46.2682 15.5612 46.51 15.7252C46.7518 15.8891 46.9473 16.1067 47.0964 16.3778C47.2455 16.6494 47.3198 16.9928 47.3198 17.4092C47.3203 17.9015 47.2424 18.2991 47.0875 18.6018Z" fill="url(#paint0_linear_1234_649)"/>
<path d="M18.8204 31.5233C18.7793 31.3572 18.675 31.2393 18.4705 31.2393C18.1697 31.2393 18.0438 31.5093 18.0438 31.7831C18.0438 32.0569 18.1697 32.3269 18.4705 32.3269C18.6908 32.3269 18.8067 32.1608 18.8283 31.953H19.068C19.0464 32.2948 18.8104 32.5311 18.47 32.5311C18.0512 32.5311 17.7977 32.193 17.7977 31.7831C17.7977 31.377 18.0517 31.0352 18.47 31.0352C18.7888 31.0352 19.0343 31.2152 19.0659 31.5233H18.8204Z" fill="#226AB6"/>
<path d="M20.5627 31.7831C20.5627 32.193 20.3093 32.5311 19.8905 32.5311C19.4716 32.5311 19.2182 32.193 19.2182 31.7831C19.2182 31.377 19.4721 31.0352 19.8905 31.0352C20.3093 31.0352 20.5627 31.3775 20.5627 31.7831ZM19.4637 31.7831C19.4637 32.0569 19.5896 32.3269 19.8905 32.3269C20.1913 32.3269 20.3172 32.0569 20.3172 31.7831C20.3172 31.5093 20.1913 31.2393 19.8905 31.2393C19.5891 31.2393 19.4637 31.5093 19.4637 31.7831Z" fill="#226AB6"/>
<path d="M20.783 31.0693H21.1291L21.5164 32.187H21.5206L21.8984 31.0693H22.2403V32.4972H22.0064V31.3956H22.0022L21.6128 32.4972H21.4105L21.0211 31.3956H21.0174V32.4972H20.7835V31.0693H20.783Z" fill="#226AB6"/>
<path d="M22.5311 31.0693H22.8773L23.2645 32.187H23.2687L23.6465 31.0693H23.9884V32.4972H23.7545V31.3956H23.7503L23.3609 32.4972H23.1586L22.7693 31.3956H22.7656V32.4972H22.5317V31.0693H22.5311Z" fill="#226AB6"/>
<path d="M24.2835 31.0693H25.2946V31.2853H24.5296V31.6592H25.2371V31.8634H24.529V32.2813H25.3077V32.4972H24.2835V31.0693Z" fill="#226AB6"/>
<path d="M25.5227 31.0693H26.1934C26.5022 31.0693 26.6576 31.2135 26.6576 31.4551C26.6576 31.7289 26.4727 31.7991 26.4258 31.8151V31.8189C26.5101 31.8291 26.6344 31.8971 26.6344 32.1211C26.6344 32.2893 26.6581 32.4393 26.7113 32.4972H26.4479C26.4105 32.435 26.4105 32.3574 26.4105 32.2872C26.4105 32.0252 26.3573 31.9094 26.1312 31.9094H25.7693V32.4972H25.5232V31.0693H25.5227ZM25.7682 31.7192H26.1713C26.3288 31.7192 26.411 31.6432 26.411 31.4915C26.411 31.3078 26.2951 31.2735 26.1671 31.2735H25.7677V31.7192H25.7682Z" fill="#226AB6"/>
<path d="M27.8546 31.5233C27.8135 31.3572 27.7092 31.2393 27.5048 31.2393C27.2039 31.2393 27.078 31.5093 27.078 31.7831C27.078 32.0569 27.2039 32.3269 27.5048 32.3269C27.725 32.3269 27.8409 32.1608 27.8625 31.953H28.1023C28.0807 32.2948 27.8446 32.5311 27.5043 32.5311C27.0854 32.5311 26.832 32.193 26.832 31.7831C26.832 31.377 27.0859 31.0352 27.5043 31.0352C27.823 31.0352 28.0685 31.2152 28.1001 31.5233H27.8546Z" fill="#226AB6"/>
<path d="M28.3267 31.0693H28.5728V32.4972H28.3267V31.0693Z" fill="#226AB6"/>
<path d="M29.2493 31.0693H29.5106L30.0512 32.4972H29.7877L29.656 32.1195H29.0954L28.9637 32.4972H28.7097L29.2493 31.0693ZM29.1623 31.9293H29.5912L29.381 31.3153H29.3752L29.1623 31.9293Z" fill="#226AB6"/>
<path d="M30.185 31.0693H30.431V32.2813H31.1449V32.4972H30.1855V31.0693H30.185Z" fill="#226AB6"/>
<path d="M31.3141 31.0693H31.5596V32.4972H31.3135V31.0693H31.3141Z" fill="#226AB6"/>
<path d="M31.8193 31.0693H32.8873V31.259L32.0691 32.2807H32.9068V32.4967H31.7566V32.2925L32.5749 31.2847H31.8198V31.0693H31.8193Z" fill="#226AB6"/>
<path d="M33.4753 31.0693H33.7366L34.2772 32.4972H34.0137L33.882 32.1195H33.3214L33.1897 32.4972H32.9358L33.4753 31.0693ZM33.3889 31.9293H33.8177L33.6075 31.3153H33.6017L33.3889 31.9293Z" fill="#226AB6"/>
<path d="M34.0965 31.0693H35.2329V31.2853H34.7867V32.4972H34.5406V31.2853H34.0965V31.0693V31.0693Z" fill="#226AB6"/>
<path d="M35.3968 31.0693H35.6428V32.4972H35.3968V31.0693Z" fill="#226AB6"/>
<path d="M37.2134 31.7831C37.2134 32.193 36.96 32.5311 36.5412 32.5311C36.1223 32.5311 35.8689 32.193 35.8689 31.7831C35.8689 31.377 36.1228 31.0352 36.5412 31.0352C36.96 31.0352 37.2134 31.3775 37.2134 31.7831ZM36.1144 31.7831C36.1144 32.0569 36.2403 32.3269 36.5412 32.3269C36.842 32.3269 36.9679 32.0569 36.9679 31.7831C36.9679 31.5093 36.842 31.2393 36.5412 31.2393C36.2403 31.2393 36.1144 31.5093 36.1144 31.7831Z" fill="#226AB6"/>
<path d="M37.4279 31.0693H37.6876L38.3288 32.1211H38.3325V31.0693H38.5664V32.4972H38.3067L37.6676 31.4476H37.6618V32.4972H37.4279V31.0693Z" fill="#226AB6"/>
<path d="M39.4047 31.0693H40.0243C40.4252 31.0693 40.5022 31.3335 40.5022 31.5114C40.5022 31.6892 40.4252 31.9491 40.0243 31.9491H39.6507V32.4972H39.4047V31.0693ZM39.6502 31.745H40.0101C40.1202 31.745 40.2561 31.6887 40.2561 31.5087C40.2561 31.3206 40.1439 31.2729 40.0143 31.2729H39.6507V31.745H39.6502Z" fill="#226AB6"/>
<path d="M40.7161 31.0693H40.9621V32.2813H41.676V32.4972H40.7166V31.0693H40.7161Z" fill="#226AB6"/>
<path d="M42.2208 31.0693H42.4821L43.0227 32.4972H42.7593L42.6276 32.1195H42.067L41.9353 32.4972H41.6813L42.2208 31.0693ZM42.1339 31.9293H42.5628L42.3525 31.3153H42.3467L42.1339 31.9293Z" fill="#226AB6"/>
<path d="M42.842 31.0693H43.9784V31.2853H43.5322V32.4972H43.2861V31.2853H42.842V31.0693V31.0693Z" fill="#226AB6"/>
<path d="M44.1418 31.0693H45.1112V31.2853H44.3873V31.6592H45.0227V31.8634H44.3873V32.4972H44.1412V31.0693H44.1418Z" fill="#226AB6"/>
<path d="M46.5786 31.7831C46.5786 32.193 46.3251 32.5311 45.9063 32.5311C45.4874 32.5311 45.234 32.193 45.234 31.7831C45.234 31.377 45.4879 31.0352 45.9063 31.0352C46.3246 31.0352 46.5786 31.3775 46.5786 31.7831ZM45.479 31.7831C45.479 32.0569 45.6049 32.3269 45.9057 32.3269C46.2066 32.3269 46.3325 32.0569 46.3325 31.7831C46.3325 31.5093 46.2066 31.2393 45.9057 31.2393C45.6049 31.2393 45.479 31.5093 45.479 31.7831Z" fill="#226AB6"/>
<path d="M46.8025 31.0693H47.4732C47.7819 31.0693 47.9373 31.2135 47.9373 31.4551C47.9373 31.7289 47.7524 31.7991 47.7055 31.8151V31.8189C47.7898 31.8291 47.9142 31.8971 47.9142 32.1211C47.9142 32.2893 47.9379 32.4393 47.9911 32.4972H47.7276C47.6902 32.435 47.6902 32.3574 47.6902 32.2872C47.6902 32.0252 47.637 31.9094 47.411 31.9094H47.049V32.4972H46.803V31.0693H46.8025ZM47.0485 31.7192H47.4516C47.6091 31.7192 47.6913 31.6432 47.6913 31.4915C47.6913 31.3078 47.5754 31.2735 47.4473 31.2735H47.048V31.7192H47.0485Z" fill="#226AB6"/>
<path d="M48.1834 31.0693H48.5296L48.9168 32.187H48.921L49.2988 31.0693H49.6407V32.4972H49.4068V31.3956H49.4031L49.0138 32.4972H48.8114L48.4221 31.3956H48.4184V32.4972H48.1845V31.0693H48.1834Z" fill="#226AB6"/>
<path d="M17.7872 28.6348H19.0332V28.8716H18.5438V30.1998H18.2745V28.8716H17.7872V28.6348V28.6348Z" fill="#226AB6"/>
<path d="M19.2123 28.6348H20.3203V28.8716H19.4821V29.2815H20.2582V29.5049H19.4821V29.963H20.3356V30.1998H19.2123V28.6348V28.6348Z" fill="#226AB6"/>
<path d="M21.6102 29.1333C21.5648 28.9512 21.4505 28.8221 21.2266 28.8221C20.8968 28.8221 20.7587 29.1178 20.7587 29.4184C20.7587 29.719 20.8968 30.0147 21.2266 30.0147C21.4679 30.0147 21.5954 29.8325 21.6191 29.6048H21.882C21.8583 29.9793 21.5996 30.2381 21.2266 30.2381C20.7677 30.2381 20.4895 29.8679 20.4895 29.4184C20.4895 28.9737 20.7677 28.5986 21.2266 28.5986C21.5759 28.5986 21.8451 28.7958 21.8799 29.1333H21.6102Z" fill="#226AB6"/>
<path d="M22.1212 28.6348H22.3904V29.2573H23.0912V28.6348H23.3604V30.1998H23.0912V29.4942H22.3904V30.1998H22.1212V28.6348Z" fill="#226AB6"/>
<path d="M23.6739 28.6348H23.9584L24.6612 29.7878H24.6655V28.6348H24.922V30.1998H24.6375L23.9368 29.0489H23.9305V30.1998H23.6739V28.6348V28.6348Z" fill="#226AB6"/>
<path d="M26.6339 29.4184C26.6339 29.8679 26.3557 30.2381 25.8968 30.2381C25.4379 30.2381 25.1597 29.8679 25.1597 29.4184C25.1597 28.9737 25.4379 28.5986 25.8968 28.5986C26.3557 28.5986 26.6339 28.9731 26.6339 29.4184ZM25.4289 29.4184C25.4289 29.719 25.5669 30.0147 25.8968 30.0147C26.2266 30.0147 26.3646 29.719 26.3646 29.4184C26.3646 29.1183 26.2266 28.8221 25.8968 28.8221C25.5669 28.8221 25.4289 29.1178 25.4289 29.4184Z" fill="#226AB6"/>
<path d="M26.8799 28.6348H27.1491V29.963H27.9315V30.1998H26.8799V28.6348Z" fill="#226AB6"/>
<path d="M29.51 29.4184C29.51 29.8679 29.2319 30.2381 28.7729 30.2381C28.314 30.2381 28.0359 29.8679 28.0359 29.4184C28.0359 28.9737 28.314 28.5986 28.7729 28.5986C29.2324 28.5986 29.51 28.9731 29.51 29.4184ZM28.3051 29.4184C28.3051 29.719 28.4431 30.0147 28.7729 30.0147C29.1028 30.0147 29.2408 29.719 29.2408 29.4184C29.2408 29.1183 29.1028 28.8221 28.7729 28.8221C28.4431 28.8221 28.3051 29.1178 28.3051 29.4184Z" fill="#226AB6"/>
<path d="M31.0996 30.2002H30.9273L30.8862 30.0159C30.7419 30.1825 30.6101 30.2371 30.4226 30.2371C29.9637 30.2371 29.6855 29.8669 29.6855 29.4174C29.6855 28.9727 29.9637 28.5977 30.4226 28.5977C30.7566 28.5977 31.0411 28.7793 31.0822 29.1324H30.8193C30.7914 28.9282 30.6191 28.8211 30.4226 28.8211C30.0928 28.8211 29.9547 29.1168 29.9547 29.4174C29.9547 29.718 30.0928 30.0137 30.4226 30.0137C30.7008 30.0202 30.8472 29.8492 30.8536 29.584H30.4442V29.3756H31.0996V30.2002V30.2002Z" fill="#226AB6"/>
<path d="M31.794 29.5863L31.2166 28.6348H31.529L31.9363 29.3361L32.3372 28.6348H32.6391L32.0638 29.5863V30.2003H31.7945V29.5863H31.794Z" fill="#226AB6"/>
<path d="M33.2434 28.6348H34.4895V28.8716H34V30.1998H33.7308V28.8716H33.2434V28.6348Z" fill="#226AB6"/>
<path d="M34.6686 28.6348H35.4036C35.7418 28.6348 35.9125 28.7928 35.9125 29.058C35.9125 29.3586 35.7097 29.4352 35.6581 29.4524V29.4567C35.7508 29.4674 35.8867 29.5424 35.8867 29.7878C35.8867 29.9721 35.9125 30.136 35.971 30.1998H35.6823C35.6412 30.1317 35.6412 30.0466 35.6412 29.9694C35.6412 29.6822 35.5833 29.5552 35.3351 29.5552H34.9384V30.1998H34.6691V28.6348H34.6686ZM34.9378 29.3474H35.3799C35.5522 29.3474 35.6428 29.2638 35.6428 29.0977C35.6428 28.8962 35.5158 28.8587 35.3757 28.8587H34.9384V29.3474H34.9378Z" fill="#226AB6"/>
<path d="M36.598 28.6348H36.8846L37.4774 30.1998H37.1886L37.0443 29.7856H36.4299L36.2856 30.1998H36.0074L36.598 28.6348ZM36.5032 29.5777H36.9731L36.7424 28.9048H36.736L36.5032 29.5777Z" fill="#226AB6"/>
<path d="M37.6138 28.6348H37.8983L38.6012 29.7878H38.6054V28.6348H38.862V30.1998H38.5775L37.8767 29.0489H37.8704V30.1998H37.6138V28.6348V28.6348Z" fill="#226AB6"/>
<path d="M39.3583 29.6793C39.3583 29.9183 39.5327 30.0147 39.7487 30.0147C39.9858 30.0147 40.0743 29.8942 40.0743 29.7779C40.0743 29.6573 40.0095 29.6091 39.9473 29.585C39.8372 29.5432 39.7018 29.5148 39.4884 29.4559C39.2234 29.3857 39.1481 29.2212 39.1481 29.0589C39.1481 28.7433 39.4326 28.5986 39.7108 28.5986C40.03 28.5986 40.3014 28.7717 40.3014 29.0985H40.0322C40.0169 28.8971 39.8878 28.8221 39.7002 28.8221C39.5754 28.8221 39.4178 28.8681 39.4178 29.0262C39.4178 29.1382 39.4911 29.195 39.6012 29.2276C39.6249 29.2341 39.9652 29.3241 40.0453 29.3482C40.2455 29.412 40.3451 29.5807 40.3451 29.7474C40.3451 30.0978 40.0369 30.2381 39.7329 30.2381C39.3815 30.2381 39.097 30.0672 39.0906 29.6793H39.3583V29.6793Z" fill="#226AB6"/>
<path d="M40.579 28.6348H41.6417V28.8716H40.8483V29.2815H41.5443V29.5049H40.8483V30.1998H40.579V28.6348V28.6348Z" fill="#226AB6"/>
<path d="M41.8572 28.6348H42.9652V28.8716H42.127V29.2815H42.9031V29.5049H42.127V29.963H42.9805V30.1998H41.8572V28.6348Z" fill="#226AB6"/>
<path d="M43.216 28.6348H43.951C44.2893 28.6348 44.46 28.7928 44.46 29.058C44.46 29.3586 44.2571 29.4352 44.2055 29.4524V29.4567C44.2982 29.4674 44.4342 29.5424 44.4342 29.7878C44.4342 29.9721 44.46 30.136 44.5185 30.1998H44.2297C44.1886 30.1317 44.1886 30.0466 44.1886 29.9694C44.1886 29.6822 44.1307 29.5552 43.8825 29.5552H43.4858V30.1998H43.2166V28.6348H43.216ZM43.4853 29.3474H43.9273C44.0996 29.3474 44.1902 29.2638 44.1902 29.0977C44.1902 28.8962 44.0632 28.8587 43.9231 28.8587H43.4858V29.3474H43.4853Z" fill="#226AB6"/>
<path d="M45.745 28.6348H46.0316L46.6244 30.1998H46.3356L46.1913 29.7856H45.5769L45.4326 30.1998H45.1544L45.745 28.6348ZM45.6502 29.5777H46.1201L45.8894 28.9048H45.883L45.6502 29.5777Z" fill="#226AB6"/>
<path d="M46.7608 28.6348H47.0453L47.7482 29.7878H47.7524V28.6348H48.009V30.1998H47.7245L47.0237 29.0489H47.0174V30.1998H46.7608V28.6348V28.6348Z" fill="#226AB6"/>
<path d="M48.3283 28.6348H48.9663C49.4405 28.6348 49.6455 28.9852 49.6455 29.417C49.6455 29.8488 49.4405 30.1998 48.9663 30.1998H48.3283V28.6348ZM48.598 29.9764H48.863C49.2856 29.9764 49.3762 29.7331 49.3762 29.4175C49.3762 29.102 49.2856 28.8587 48.863 28.8587H48.598V29.9764Z" fill="#226AB6"/>
<path d="M14.0796 35.2588H7.00052C6.79926 35.2588 6.63593 35.4249 6.63593 35.6296C6.63593 35.8342 6.79926 36.0003 7.00052 36.0003H14.0796C14.2808 36.0003 14.4441 35.8342 14.4441 35.6296C14.4441 35.4249 14.2808 35.2588 14.0796 35.2588Z" fill="url(#paint1_linear_1234_649)"/>
<path d="M16.2134 28.1662C15.725 28.1662 15.3288 28.5696 15.3288 29.0657C15.3288 29.4402 15.5548 29.7612 15.8751 29.8967V30.9469C15.8751 31.6605 15.3035 32.2413 14.6022 32.2413H6.53003C5.82824 32.2413 5.25711 31.66 5.25711 30.9469V27.3668C5.25711 27.243 5.19652 27.1273 5.09589 27.0587C2.36143 25.1958 0.728662 22.0877 0.728662 18.7444C0.728662 16.0462 1.76976 13.5168 3.65911 11.6223C5.51423 9.75988 7.96259 8.74082 10.5653 8.74082C10.6122 8.74082 10.6591 8.74082 10.706 8.74189C11.6802 8.75582 12.638 8.91549 13.5606 9.21713C13.5595 9.23535 13.5595 9.25196 13.5595 9.27017C13.5595 9.76685 13.9563 10.1698 14.4442 10.1698C14.9326 10.1698 15.3288 9.76631 15.3288 9.27017C15.3288 8.7735 14.932 8.3706 14.4442 8.3706C14.2434 8.3706 14.0569 8.43918 13.9078 8.55491C12.8793 8.20182 11.8072 8.01537 10.716 8.00091C7.86459 7.96394 5.17597 9.05961 3.147 11.094C1.11802 13.13 0 15.8464 0 18.7444C0 22.2688 1.68967 25.5505 4.52845 27.5629V30.9474C4.52845 32.0693 5.42676 32.9828 6.53056 32.9828H14.6027C15.706 32.9828 16.6048 32.0693 16.6048 30.9474V29.8732C16.8973 29.7269 17.0996 29.4199 17.0996 29.0663C17.0985 28.5696 16.7018 28.1662 16.2134 28.1662Z" fill="url(#paint2_linear_1234_649)"/>
<path d="M15.0163 33.751H6.06375C5.86249 33.751 5.69916 33.9171 5.69916 34.1217C5.69916 34.3264 5.86249 34.4925 6.06375 34.4925H15.0163C15.2176 34.4925 15.3809 34.3264 15.3809 34.1217C15.3809 33.9171 15.2176 33.751 15.0163 33.751Z" fill="url(#paint3_linear_1234_649)"/>
</g>
<path d="M75.2653 27.1094C75.2653 26.4003 75.2653 25.6914 75.2653 24.9826C75.2631 24.8647 75.2684 24.7467 75.2812 24.6295C75.302 24.4672 75.3968 24.3759 75.553 24.3484C75.5935 24.3419 75.6344 24.3389 75.6754 24.3394C75.953 24.3394 76.2307 24.3394 76.5086 24.3394C76.5409 24.3393 76.5732 24.3411 76.6053 24.3449C76.794 24.3674 76.9018 24.4657 76.9439 24.656C76.9519 24.6973 76.9567 24.7392 76.9584 24.7814C76.9661 24.8399 76.968 24.8992 76.9642 24.9581C76.897 25.475 77.1228 25.8915 77.3907 26.293C77.4874 26.4388 77.5905 26.5811 77.6939 26.7224C78.0389 27.2088 78.5052 27.5894 79.0432 27.8235C79.6101 28.0764 80.241 28.1332 80.8418 27.9853C81.3771 27.855 81.7896 27.5479 82.1369 27.1269C82.3078 26.9098 82.4325 26.658 82.503 26.3878C82.679 25.7686 82.707 25.1444 82.4914 24.5232C82.4155 24.2991 82.2845 24.0993 82.1112 23.9434C81.8549 23.7061 81.5603 23.517 81.2407 23.3846C80.9138 23.2533 80.5796 23.1409 80.2469 23.0256C79.597 22.8008 78.9412 22.5911 78.296 22.3529C77.942 22.2224 77.597 22.0671 77.2635 21.888C76.6288 21.5469 76.1025 21.0244 75.7474 20.3829C75.7145 20.3244 75.6846 20.2645 75.6507 20.2071C75.4495 19.8835 75.3489 19.5165 75.2865 19.1409C75.2382 18.8588 75.2063 18.5736 75.17 18.289C75.1572 18.2144 75.1533 18.1384 75.1584 18.0628C75.2135 17.5769 75.2411 17.087 75.3736 16.6146C75.4117 16.4596 75.4616 16.308 75.523 16.1612C75.744 15.6778 76.0207 15.2318 76.3935 14.8553C76.5734 14.6823 76.7676 14.5259 76.9739 14.3879C77.388 14.099 77.854 13.899 78.3444 13.7996C78.817 13.6976 79.303 13.6788 79.7817 13.7442C80.0001 13.7681 80.2159 13.8118 80.4268 13.875C80.7852 13.9929 81.1387 14.1197 81.4555 14.3385C81.632 14.4603 81.8182 14.5667 82.001 14.678C82.0359 14.6993 82.0733 14.7161 82.1122 14.728C82.1295 14.7345 82.1481 14.7371 82.1665 14.7355C82.1849 14.7338 82.2027 14.7281 82.2187 14.7185C82.2347 14.709 82.2485 14.696 82.2591 14.6803C82.2697 14.6647 82.2768 14.6469 82.28 14.6281C82.2945 14.5542 82.2902 14.4783 82.3003 14.4024C82.3095 14.3022 82.3275 14.2031 82.354 14.1062C82.3692 14.0529 82.3994 14.0054 82.4409 13.9698C82.4823 13.9342 82.533 13.9122 82.5866 13.9065C82.9684 13.8651 83.3534 13.8651 83.7352 13.9065C83.7887 13.9112 83.8396 13.9329 83.8806 13.9687C83.9217 14.0044 83.951 14.0525 83.9644 14.1062C83.9899 14.1948 84.0052 14.2862 84.0099 14.3784C84.0176 14.5282 84.0133 14.682 84.0133 14.8338C84.0133 15.8549 84.0133 16.8759 84.0133 17.897C84.0133 17.9649 84.0133 18.0323 84.0133 18.0997C83.9997 18.3459 83.903 18.4493 83.6694 18.4743C83.637 18.4773 83.6041 18.4793 83.5727 18.4793C83.2864 18.4793 83.0006 18.4833 82.7148 18.4758C82.4778 18.4698 82.3932 18.3964 82.3429 18.1582C82.3185 18.0433 82.3056 17.9262 82.3042 17.8086C82.3023 17.6218 82.2415 17.4407 82.1311 17.2927C81.8786 16.9385 81.5732 16.628 81.2262 16.3729C80.9469 16.1644 80.6285 16.0185 80.2914 15.9444C80.0042 15.883 79.7111 15.8506 79.4209 15.8061C79.3967 15.8029 79.3721 15.8029 79.3479 15.8061C78.9093 15.86 78.4716 15.9185 78.0658 16.1157C77.7769 16.2586 77.5336 16.4839 77.3646 16.7649C77.2865 16.9032 77.2156 17.0457 77.1523 17.1919C77.1366 17.2215 77.1255 17.2535 77.1194 17.2868C77.0686 17.6718 77.015 18.0578 77.1286 18.4403C77.1615 18.5533 77.2068 18.662 77.2635 18.7644C77.5232 19.2248 77.885 19.5634 78.3826 19.7337C78.8701 19.9025 79.3566 20.0718 79.8542 20.2091C80.2716 20.3244 80.6764 20.4832 81.0889 20.6221C81.2751 20.685 81.4627 20.7424 81.6479 20.8083C81.7798 20.8529 81.9089 20.9055 82.0348 20.9656C82.2719 21.0754 82.5033 21.1976 82.7283 21.3317C83.0744 21.5425 83.3776 21.8206 83.6211 22.1507C83.8266 22.435 84.0103 22.7355 84.1705 23.0495C84.3917 23.5019 84.5378 23.9894 84.6028 24.4917C84.6512 24.8338 84.6995 25.1759 84.6903 25.5239C84.68 26.2001 84.5499 26.8687 84.3063 27.4964C84.2854 27.5514 84.2612 27.6049 84.2338 27.6567C83.7579 28.5511 83.1171 29.2762 82.2147 29.7242C81.9026 29.8719 81.575 29.9819 81.2383 30.0517C80.7098 30.1738 80.1624 30.1804 79.6313 30.0712C79.1648 29.9829 78.7134 29.8243 78.2917 29.6003C77.9565 29.4061 77.6402 29.179 77.3472 28.9222C77.292 28.8729 77.2317 28.8302 77.1673 28.7948C77.151 28.7856 77.1327 28.7806 77.114 28.7802C77.0954 28.7799 77.077 28.7842 77.0603 28.7929C77.0437 28.8015 77.0293 28.8142 77.0185 28.8299C77.0076 28.8455 77.0006 28.8636 76.998 28.8827C76.9831 28.9652 76.9739 29.0486 76.9705 29.1324C76.9632 29.2587 76.9681 29.3861 76.955 29.5114C76.9303 29.7491 76.8268 29.8555 76.5995 29.8899C76.5515 29.8973 76.503 29.9009 76.4545 29.9009C76.2339 29.9009 76.0129 29.9039 75.7924 29.9009C75.7026 29.8991 75.6132 29.8882 75.5254 29.8685C75.4603 29.8572 75.4009 29.8234 75.357 29.7725C75.313 29.7217 75.2871 29.6569 75.2836 29.5888C75.273 29.4711 75.2681 29.353 75.2691 29.2348C75.2656 28.527 75.2643 27.8185 75.2653 27.1094Z" fill="#383580"/>
<path d="M98.3983 19.5263H102.517C102.623 19.5237 102.73 19.5268 102.835 19.5358C103.039 19.5582 103.16 19.6856 103.188 19.8938C103.195 19.9601 103.199 20.0268 103.198 20.0936C103.198 21.1822 103.198 22.2708 103.198 23.3595C103.198 23.3934 103.198 23.4274 103.198 23.4593C103.183 23.709 103.085 23.8249 102.845 23.8668C102.788 23.8757 102.731 23.8795 102.674 23.8783C102.445 23.8783 102.216 23.8783 101.988 23.8783C101.93 23.8786 101.873 23.875 101.816 23.8673C101.751 23.861 101.688 23.835 101.637 23.7925C101.585 23.75 101.547 23.6929 101.526 23.6281C101.48 23.493 101.458 23.35 101.463 23.2067C101.471 22.8186 101.472 22.4306 101.475 22.0421C101.475 21.9752 101.471 21.9084 101.46 21.8424C101.435 21.6896 101.364 21.6211 101.219 21.6047C101.162 21.5992 101.105 21.5971 101.047 21.5982H97.1689C97.1206 21.5982 97.0722 21.5982 97.0238 21.6032C96.8618 21.6196 96.7941 21.6881 96.7758 21.8593C96.7707 21.9258 96.7689 21.9925 96.7704 22.0591C96.7704 23.2909 96.7704 24.5227 96.7704 25.7545C96.7692 25.838 96.7747 25.9215 96.7869 26.0041C96.7926 26.051 96.8132 26.0946 96.8455 26.128C96.8778 26.1614 96.92 26.1829 96.9653 26.1889C97.0541 26.202 97.1436 26.2078 97.2332 26.2064C98.165 26.2064 99.0968 26.2064 100.029 26.2064C100.118 26.2038 100.208 26.2065 100.298 26.2144C100.52 26.2403 100.652 26.3767 100.685 26.6039C100.689 26.637 100.692 26.6703 100.692 26.7038C100.692 27.0748 100.692 27.4463 100.692 27.8174C100.69 27.8853 100.678 27.9527 100.657 28.0171C100.642 28.079 100.608 28.1346 100.562 28.1765C100.515 28.2183 100.457 28.2444 100.395 28.2513C100.306 28.264 100.216 28.2706 100.127 28.2713C99.1707 28.2713 98.2145 28.2713 97.2579 28.2713C97.168 28.2693 97.0781 28.2723 96.9885 28.2803C96.8367 28.2973 96.7782 28.3667 96.769 28.53C96.7666 28.5719 96.769 28.6144 96.769 28.6563C96.769 30.0406 96.769 31.4247 96.769 32.8086C96.769 32.9265 96.7608 33.0448 96.7656 33.1627C96.7709 33.306 96.8377 33.3799 96.9726 33.3994C97.0376 33.4069 97.103 33.4098 97.1684 33.4079H101.067C101.115 33.4079 101.164 33.4079 101.212 33.4034C101.38 33.3854 101.454 33.3035 101.47 33.1257C101.476 33.0498 101.474 32.9759 101.474 32.898C101.474 32.4675 101.474 32.0371 101.474 31.6066C101.473 31.514 101.479 31.4214 101.49 31.3295C101.499 31.2617 101.527 31.1982 101.571 31.1474C101.615 31.0967 101.674 31.0612 101.738 31.0458C101.793 31.0288 101.85 31.0199 101.907 31.0194C102.193 31.0164 102.479 31.0164 102.765 31.0194C102.814 31.0194 102.863 31.0254 102.91 31.0373C102.987 31.0525 103.057 31.0946 103.108 31.1565C103.159 31.2184 103.187 31.2964 103.189 31.3774C103.194 31.4358 103.194 31.4953 103.194 31.5542C103.194 32.6528 103.194 33.7499 103.194 34.8456C103.194 34.913 103.194 34.9809 103.189 35.0483C103.17 35.2805 103.07 35.4009 102.842 35.4358C102.691 35.4649 102.536 35.4743 102.383 35.4638C101.933 35.4138 101.484 35.4353 101.035 35.4348C98.7305 35.4318 96.4253 35.4318 94.1198 35.4348C94.0545 35.4348 93.9887 35.4348 93.9234 35.4318C93.7517 35.4168 93.6555 35.3319 93.6231 35.1537C93.6064 35.0547 93.5979 34.9545 93.5975 34.854C93.593 34.5754 93.5918 34.2969 93.5941 34.0186C93.594 33.9258 93.6018 33.8333 93.6173 33.7419C93.6526 33.5422 93.7508 33.4463 93.9437 33.4238C94.0327 33.4133 94.1236 33.4178 94.2131 33.4163C94.3524 33.4163 94.4912 33.4193 94.63 33.4114C94.8176 33.4009 94.8877 33.3235 94.8998 33.1252C94.9037 33.0663 94.9022 33.0074 94.9022 32.9479C94.9022 29.3275 94.9022 25.707 94.9022 22.0866C94.9045 22.0023 94.9024 21.9179 94.896 21.8339C94.8805 21.6916 94.8128 21.6236 94.6754 21.6087C94.6029 21.6007 94.5304 21.6032 94.4554 21.6017C94.3002 21.6017 94.144 21.6062 93.9897 21.5942C93.7522 21.5757 93.655 21.4778 93.6158 21.2381C93.6049 21.1802 93.5988 21.1214 93.5975 21.0623C93.5975 20.7333 93.5946 20.4042 93.5975 20.0751C93.5988 19.9908 93.6097 19.907 93.6299 19.8254C93.6442 19.7455 93.6847 19.6731 93.7446 19.6202C93.8044 19.5674 93.88 19.5374 93.9587 19.5353C94.0554 19.5253 94.1522 19.5273 94.2528 19.5273L98.3983 19.5263Z" fill="#383580"/>
<path d="M105.938 11.0229C106.592 11.0229 107.244 11.0274 107.899 11.0229C108.234 11.0274 108.568 11.0548 108.899 11.1048C108.955 11.1159 109.012 11.123 109.069 11.1263C109.466 11.1228 109.843 11.2331 110.225 11.326C110.81 11.4683 111.283 11.8059 111.681 12.2588C112.137 12.7792 112.454 13.3849 112.674 14.0461C112.803 14.4377 112.878 14.8457 112.898 15.2586C112.905 15.3759 112.925 15.4928 112.933 15.6081C112.949 15.7421 112.954 15.8772 112.95 16.0121C112.917 16.3981 112.88 16.7842 112.828 17.1682C112.768 17.6056 112.614 18.0171 112.435 18.4166C112.265 18.7906 112.073 19.1542 111.806 19.4683C111.6 19.7205 111.355 19.9354 111.08 20.104C110.718 20.3167 110.355 20.5215 109.944 20.6303C109.517 20.7389 109.079 20.8011 108.639 20.8161C108.467 20.8241 108.297 20.8471 108.126 20.853C107.775 20.865 107.424 20.8705 107.073 20.879C106.959 20.882 106.844 20.879 106.73 20.8915C106.585 20.9085 106.532 20.9654 106.509 21.1157C106.501 21.1819 106.497 21.2487 106.498 21.3155C106.498 22.3448 106.498 23.3742 106.498 24.4036C106.497 24.4794 106.501 24.5551 106.511 24.6303C106.532 24.7751 106.593 24.839 106.736 24.8505C106.915 24.865 107.095 24.864 107.273 24.8745C107.371 24.8765 107.468 24.8882 107.564 24.9095C107.702 24.9469 107.796 25.0473 107.799 25.1986C107.805 25.6625 107.809 26.1264 107.799 26.5903C107.794 26.7831 107.672 26.895 107.488 26.9229C107.423 26.9303 107.357 26.933 107.292 26.9309C106.067 26.9309 104.842 26.9309 103.616 26.9309C103.543 26.9334 103.469 26.929 103.397 26.9179C103.335 26.9088 103.278 26.8797 103.234 26.8348C103.189 26.7899 103.16 26.7316 103.149 26.6682C103.135 26.5938 103.128 26.518 103.128 26.442C103.128 26.088 103.128 25.7334 103.128 25.3794C103.128 25.3539 103.128 25.3294 103.131 25.3035C103.147 25.0283 103.231 24.9254 103.491 24.877C103.58 24.8637 103.669 24.8573 103.759 24.858C103.89 24.854 104.021 24.858 104.151 24.852C104.331 24.841 104.402 24.7681 104.41 24.5849C104.418 24.4166 104.416 24.2478 104.416 24.079C104.415 23.9102 104.408 23.7414 104.408 23.5726C104.408 20.4173 104.408 17.2619 104.408 14.1065C104.408 13.9123 104.408 13.7185 104.406 13.5242C104.406 13.4652 104.404 13.4062 104.398 13.3475C104.376 13.1592 104.319 13.0978 104.132 13.0818C104.011 13.0708 103.888 13.0768 103.765 13.0718C103.659 13.0713 103.553 13.0635 103.448 13.0483C103.243 13.0109 103.155 12.9035 103.135 12.6883C103.129 12.6294 103.128 12.5704 103.128 12.5115C103.128 12.1909 103.128 11.8703 103.128 11.5497C103.127 11.4654 103.133 11.3811 103.144 11.2975C103.15 11.2294 103.178 11.1654 103.224 11.1161C103.27 11.0669 103.331 11.0354 103.397 11.0269C103.461 11.0163 103.526 11.0116 103.59 11.0129H105.943L105.938 11.0229ZM106.511 15.9667H106.508V18.3956C106.508 18.4551 106.508 18.514 106.512 18.5729C106.527 18.7607 106.586 18.8266 106.763 18.8556C106.795 18.8611 106.828 18.8639 106.86 18.864C107.399 18.864 107.938 18.867 108.472 18.7737C108.753 18.7237 109.034 18.6803 109.307 18.5854C109.973 18.3542 110.419 17.9137 110.626 17.2096C110.825 16.524 110.838 15.8308 110.723 15.1332C110.668 14.7657 110.541 14.4137 110.349 14.099C109.99 13.5242 109.468 13.2346 108.83 13.1547C108.193 13.0748 107.543 13.0798 106.896 13.0878C106.839 13.0877 106.782 13.0919 106.725 13.1003C106.671 13.1038 106.621 13.1273 106.583 13.1664C106.544 13.2055 106.521 13.2576 106.518 13.313C106.509 13.3884 106.506 13.4643 106.508 13.5402C106.51 14.3492 106.511 15.1585 106.511 15.9682V15.9667Z" fill="#383580"/>
<path d="M91.1702 21.9213C91.1702 23.7191 91.1702 25.5168 91.1702 27.3146C91.1676 27.4156 91.1718 27.5167 91.1828 27.6172C91.1992 27.7375 91.265 27.794 91.3811 27.8024C91.4381 27.8064 91.4952 27.8024 91.5528 27.7994C91.8468 27.7994 92.1408 27.7935 92.4349 27.7994C92.5245 27.8012 92.6135 27.8157 92.6994 27.8424C92.7632 27.8597 92.8208 27.8959 92.8649 27.9466C92.9091 27.9973 92.938 28.0602 92.948 28.1275C92.9639 28.2098 92.973 28.2933 92.9751 28.3772C92.9784 28.6978 92.9751 29.0184 92.9751 29.339C92.9751 29.3645 92.9751 29.3889 92.9751 29.4149C92.9567 29.7145 92.8425 29.8354 92.5475 29.8579C92.4581 29.8649 92.3676 29.8624 92.2777 29.8624C90.8236 29.8624 89.3691 29.8624 87.9141 29.8624C87.8162 29.8645 87.7183 29.8602 87.621 29.8494C87.5545 29.8456 87.4912 29.819 87.4411 29.7737C87.3909 29.7285 87.3569 29.6672 87.3444 29.5997C87.3197 29.5017 87.3049 29.4012 87.3004 29.3001C87.2946 28.9795 87.3004 28.6589 87.3004 28.3378C87.2999 28.2957 87.3023 28.2536 87.3076 28.2119C87.3444 27.9622 87.4885 27.8214 87.7308 27.7979C87.7879 27.793 87.8454 27.7935 87.9025 27.794L88.7604 27.8014C88.7851 27.8014 88.8088 27.8039 88.8339 27.8014C88.9906 27.794 89.0622 27.7335 89.0694 27.5727C89.0805 27.3285 89.0805 27.0843 89.082 26.8396C89.082 26.7473 89.0709 26.6544 89.0723 26.5615C89.0859 25.4399 89.0641 24.3183 89.068 23.1962C89.0738 21.6522 89.068 20.1081 89.0704 18.564C89.0704 18.3363 89.083 18.1086 89.0897 17.8809C89.0925 17.8477 89.0936 17.8143 89.0931 17.781C89.0593 17.3426 89.1023 16.9041 89.0931 16.4657C89.0931 16.3898 89.0864 16.3141 89.0733 16.2394C89.0491 16.1111 88.9853 16.0532 88.8576 16.0367C88.8008 16.0303 88.7436 16.0276 88.6864 16.0287C88.0738 16.0287 87.4613 16.0287 86.8487 16.0287C86.7915 16.0275 86.7343 16.0304 86.6775 16.0372C86.6236 16.039 86.5723 16.0618 86.5339 16.101C86.4956 16.1401 86.4729 16.1928 86.4705 16.2484C86.4638 16.3148 86.4614 16.3815 86.4632 16.4482C86.4632 16.8702 86.4632 17.2921 86.4632 17.7141C86.4653 17.7976 86.4606 17.8811 86.4492 17.9638C86.4423 18.028 86.4147 18.0879 86.3709 18.1339C86.327 18.1799 86.2694 18.2093 86.2074 18.2175C86.1515 18.2294 86.0947 18.2364 86.0377 18.2384C85.7596 18.2409 85.4815 18.2479 85.2044 18.2384C84.8915 18.227 84.7813 18.1126 84.7518 17.7935C84.7426 17.6936 84.7435 17.5913 84.7435 17.4899C84.7435 16.5364 84.7435 15.5829 84.7435 14.6295C84.7435 14.5451 84.7435 14.4607 84.7498 14.3768C84.7735 14.0877 84.8949 13.9508 85.1768 13.9144C85.2986 13.9015 85.4212 13.8982 85.5434 13.9044C85.8699 13.9124 86.1963 13.9338 86.5227 13.9338C89.0153 13.9368 91.5078 13.9368 94.0003 13.9338C94.2368 13.9338 94.4738 13.9199 94.7102 13.9079C94.8652 13.8976 95.0208 13.9082 95.1731 13.9393C95.2504 13.9507 95.3216 13.9894 95.3745 14.0489C95.4274 14.1083 95.4588 14.1848 95.4632 14.2654C95.4718 14.3316 95.4762 14.3984 95.4763 14.4652C95.4763 15.5538 95.4763 16.6423 95.4763 17.7306C95.4771 17.7975 95.4719 17.8644 95.4608 17.9303C95.427 18.1161 95.3501 18.192 95.1706 18.222C95.1227 18.2307 95.0742 18.2356 95.0256 18.2364C94.7557 18.2364 94.4858 18.2444 94.2165 18.2364C93.8692 18.226 93.7653 18.1151 93.7609 17.7575C93.7561 17.3271 93.7609 16.8966 93.7585 16.4662C93.7589 16.3825 93.7526 16.299 93.7396 16.2165C93.7335 16.1654 93.7097 16.1183 93.6725 16.0841C93.6353 16.0498 93.5873 16.0307 93.5375 16.0302C93.4809 16.0247 93.4234 16.0222 93.3663 16.0222H91.5537C91.4965 16.0212 91.4393 16.0242 91.3825 16.0312C91.3286 16.0337 91.2776 16.0571 91.2397 16.0967C91.2018 16.1363 91.1797 16.1893 91.178 16.2449C91.1717 16.3113 91.1694 16.378 91.1712 16.4447C91.1712 16.8662 91.1712 17.288 91.1712 17.7101L91.1702 21.9213Z" fill="#383580"/>
<path d="M115.113 21.9169C115.113 20.1275 115.113 18.3381 115.113 16.5486C115.116 16.4475 115.112 16.3463 115.104 16.2455C115.101 16.1942 115.08 16.1456 115.045 16.1088C115.01 16.0721 114.964 16.0497 114.914 16.0458C114.849 16.0376 114.784 16.0344 114.718 16.0363C114.525 16.0363 114.326 16.0363 114.13 16.0363C114.073 16.0375 114.015 16.0356 113.958 16.0308C113.747 16.0073 113.651 15.9189 113.61 15.7052C113.597 15.6306 113.59 15.5548 113.591 15.479C113.591 15.1919 113.587 14.9052 113.591 14.6181C113.595 14.5087 113.606 14.3997 113.625 14.292C113.656 14.0982 113.781 14.0033 113.958 13.9739C114.023 13.9647 114.087 13.9608 114.152 13.9624C115.484 13.9624 116.817 13.9624 118.149 13.9624C118.23 13.9599 118.311 13.967 118.391 13.9834C118.456 13.9947 118.516 14.0288 118.56 14.0799C118.604 14.131 118.629 14.1962 118.633 14.2645C118.638 14.3143 118.641 14.3643 118.641 14.4143C118.641 14.8028 118.641 15.1909 118.641 15.5794C118.641 15.6128 118.641 15.6468 118.638 15.6792C118.62 15.9109 118.528 16.0148 118.299 16.0288C118.087 16.0413 117.874 16.0333 117.662 16.0353C117.58 16.0353 117.498 16.0328 117.417 16.0408C117.272 16.0553 117.196 16.1277 117.175 16.279C117.167 16.3544 117.164 16.4303 117.166 16.5062C117.166 17.0295 117.166 17.5529 117.166 18.0762C117.166 21.1144 117.166 24.1529 117.166 27.1918C117.166 27.3017 117.163 27.4115 117.169 27.5209C117.182 27.7576 117.26 27.84 117.485 27.8465C117.71 27.853 117.926 27.8465 118.147 27.8515C118.237 27.8537 118.326 27.8661 118.412 27.8884C118.473 27.9019 118.528 27.9358 118.568 27.9848C118.608 28.0337 118.631 28.095 118.634 28.1591C118.635 28.1675 118.636 28.176 118.636 28.1845C118.636 28.6315 118.643 29.0789 118.634 29.5259C118.63 29.7456 118.512 29.8649 118.305 29.9019C118.248 29.9102 118.191 29.9136 118.134 29.9119C116.793 29.9119 115.453 29.9119 114.112 29.9119C114.031 29.9124 113.95 29.9043 113.87 29.8879C113.8 29.8781 113.736 29.8431 113.689 29.7891C113.641 29.7351 113.614 29.6656 113.611 29.5928C113.599 29.4584 113.591 29.3236 113.589 29.1883C113.585 28.9356 113.583 28.6819 113.589 28.4292C113.592 28.3281 113.606 28.2276 113.63 28.1296C113.643 28.067 113.674 28.0099 113.719 27.9655C113.764 27.9211 113.82 27.8913 113.881 27.8799C113.961 27.8621 114.042 27.8524 114.123 27.851C114.335 27.847 114.548 27.851 114.76 27.851C115.044 27.846 115.105 27.786 115.108 27.4899C115.112 27.0849 115.108 26.6794 115.108 26.2744V21.9169H115.113Z" fill="#383580"/>
<path d="M116.026 12.2054C116.947 12.2054 117.694 11.4345 117.694 10.4836C117.694 9.53261 116.947 8.76172 116.026 8.76172C115.105 8.76172 114.359 9.53261 114.359 10.4836C114.359 11.4345 115.105 12.2054 116.026 12.2054Z" fill="#383580"/>
<path d="M120.195 12.2054C121.116 12.2054 121.863 11.4345 121.863 10.4836C121.863 9.53261 121.116 8.76172 120.195 8.76172C119.274 8.76172 118.528 9.53261 118.528 10.4836C118.528 11.4345 119.274 12.2054 120.195 12.2054Z" fill="#E89426"/>
<path d="M124.364 12.2054C125.285 12.2054 126.031 11.4345 126.031 10.4836C126.031 9.53261 125.285 8.76172 124.364 8.76172C123.443 8.76172 122.696 9.53261 122.696 10.4836C122.696 11.4345 123.443 12.2054 124.364 12.2054Z" fill="#383580"/>
<path d="M116.026 7.82356C116.947 7.82356 117.694 7.05267 117.694 6.10172C117.694 5.15078 116.947 4.37988 116.026 4.37988C115.105 4.37988 114.359 5.15078 114.359 6.10172C114.359 7.05267 115.105 7.82356 116.026 7.82356Z" fill="#E89426"/>
<path d="M120.195 7.82356C121.116 7.82356 121.863 7.05267 121.863 6.10172C121.863 5.15078 121.116 4.37988 120.195 4.37988C119.274 4.37988 118.528 5.15078 118.528 6.10172C118.528 7.05267 119.274 7.82356 120.195 7.82356Z" fill="#383580"/>
<path d="M124.364 7.82356C125.285 7.82356 126.031 7.05267 126.031 6.10172C126.031 5.15078 125.285 4.37988 124.364 4.37988C123.443 4.37988 122.696 5.15078 122.696 6.10172C122.696 7.05267 123.443 7.82356 124.364 7.82356Z" fill="#383580"/>
<path d="M116.026 3.44368C116.947 3.44368 117.694 2.67279 117.694 1.72184C117.694 0.770894 116.947 0 116.026 0C115.105 0 114.359 0.770894 114.359 1.72184C114.359 2.67279 115.105 3.44368 116.026 3.44368Z" fill="#383580"/>
<path d="M120.195 3.44368C121.116 3.44368 121.863 2.67279 121.863 1.72184C121.863 0.770894 121.116 0 120.195 0C119.274 0 118.528 0.770894 118.528 1.72184C118.528 2.67279 119.274 3.44368 120.195 3.44368Z" fill="#383580"/>
<path d="M124.364 3.44368C125.285 3.44368 126.031 2.67279 126.031 1.72184C126.031 0.770894 125.285 0 124.364 0C123.443 0 122.696 0.770894 122.696 1.72184C122.696 2.67279 123.443 3.44368 124.364 3.44368Z" fill="#383580"/>
<path d="M63 10V34.5" stroke="#F5F5F5" stroke-width="2"/>
<defs>
<linearGradient id="paint0_linear_1234_649" x1="8.83509" y1="19.8696" x2="50" y2="19.8696" gradientUnits="userSpaceOnUse">
<stop stop-color="#226AB6"/>
<stop offset="1" stop-color="#42C3D5"/>
</linearGradient>
<linearGradient id="paint1_linear_1234_649" x1="-1.16332e-05" y1="35.6294" x2="17.0984" y2="35.6294" gradientUnits="userSpaceOnUse">
<stop stop-color="#42C3D5"/>
<stop offset="1" stop-color="#226AB6"/>
</linearGradient>
<linearGradient id="paint2_linear_1234_649" x1="0" y1="20.4914" x2="17.0985" y2="20.4914" gradientUnits="userSpaceOnUse">
<stop stop-color="#42C3D5"/>
<stop offset="1" stop-color="#226AB6"/>
</linearGradient>
<linearGradient id="paint3_linear_1234_649" x1="5.44206e-06" y1="34.1213" x2="17.0985" y2="34.1213" gradientUnits="userSpaceOnUse">
<stop stop-color="#42C3D5"/>
<stop offset="1" stop-color="#226AB6"/>
</linearGradient>
<clipPath id="clip0_1234_649">
<rect width="50" height="28" fill="white" transform="translate(0 8)"/>
</clipPath>
</defs>
</svg>
